<?xml version="1.0" encoding="utf-8"?>
<!-- Generator: Adobe Illustrator 18.1.1, SVG Export Plug-In . SVG Version: 6.00 Build 0)  -->
<svg version="1.1" id="logo" xmlns="http://www.w3.org/2000/svg" xmlns:xlink="http://www.w3.org/1999/xlink" x="0px" y="0px"
	 viewBox="-64 79 128 128" enable-background="new -64 79 128 128" xml:space="preserve">
<circle id="bg" fill="#2C3133" cx="0" cy="143" r="61"/>
<path id="pencil" fill="#FFFFFF" d="M17.6,126c4.7,4.7,2.5,8.1,2.5,8.1l-34,32.5l-14.6,3.5l-0.3-0.2L-25,156l34.2-32.4
	c0.7-0.2,2.1-0.7,4.2-0.2l-36.1,34.4l-0.5,4.2l3.1,2.9l4.1-0.9l1.4-1.9l0.2-3.1l-1.9-2.7L16.6,125C17.1,125.3,17.1,125.3,17.6,126z
	 M26.4,117.6c-2.9-2.7-8.1-2.7-11.1,0.2l-3.5,3.3c0,0,4.1-1.8,8.6,2.4c4.9,4.5,2.5,8.1,2.5,8.1l3.3-2.9c1.8-1.7,2.5-3.8,2.5-5.9
	C28.7,120.9,28.1,118.9,26.4,117.6z"/>
<path id="border" fill="#FFFFFF" d="M0,78.7c-35.5,0-64,28.6-64,64.2c0,35.6,28.5,64.2,64,64.2s64-28.6,64-64.2
	C64,107.2,35.5,78.7,0,78.7z M0,204c-33.7,0-61-27.3-61-61s27.3-61,61-61s61,27.3,61,61S33.7,204,0,204z"/>
</svg>
