<?xml version="1.0" encoding="utf-8"?>
<!-- Generator: Adobe Illustrator 18.1.1, SVG Export Plug-In . SVG Version: 6.00 Build 0)  -->
<svg version="1.1" id="图层_1" xmlns="http://www.w3.org/2000/svg" xmlns:xlink="http://www.w3.org/1999/xlink" x="0px" y="0px"
	 viewBox="0 30 83 83" enable-background="new 0 30 83 83" xml:space="preserve">
<path fill="#2C3133" d="M41.5,30C18.5,30,0,48.5,0,71.5S18.5,113,41.5,113S83,94.5,83,71.5S64.5,30,41.5,30z"/>
<path fill="#FFFFFF" d="M64,63.7L29.7,96.4L15,99.9l-0.3-0.2l3.8-14l34.4-32.5c0.7-0.2,2.1-0.7,4.3-0.2L20.8,87.6l-0.5,4.3l3.1,2.9
	l4.1-0.9l1.4-1.9l0.2-3.1L27,86.2l33.4-31.6c0.5,0.3,0.5,0.3,1,1C66.2,60.3,64,63.7,64,63.7z"/>
<path fill="#FFFFFF" d="M70,58.2l-3.3,2.9c0,0,2.4-3.6-2.6-8.1c-4.5-4.2-8.6-2.4-8.6-2.4l3.5-3.3c3.1-2.9,8.3-2.9,11.2-0.2
	c1.7,1.4,2.4,3.3,2.4,5.2l0,0l0,0C72.6,54.4,71.8,56.5,70,58.2z"/>
</svg>
